<?xml version="1.0" ?><!DOCTYPE svg  PUBLIC '-//W3C//DTD SVG 1.1//EN'  'http://www.w3.org/Graphics/SVG/1.1/DTD/svg11.dtd'><svg enable-background="new 0 0 32 32" version="1.1" viewBox="0 0 32 32" xml:space="preserve" xmlns="http://www.w3.org/2000/svg" xmlns:xlink="http://www.w3.org/1999/xlink"><g id="Desktop25"/><g id="Desktop24"/><g id="Desktop23"/><g id="Desktop22"/><g id="Desktop21"/><g id="Desktop20"/><g id="Desktop19"/><g id="Desktop18"/><g id="Desktop17"/><g id="Desktop16"/><g id="Desktop15"/><g id="Desktop14"/><g id="Desktop13"/><g id="Desktop12"/><g id="Desktop11"/><g id="Desktop10"/><g id="Desktop09"/><g id="Desktop08"/><g id="Desktop07"/><g id="Desktop06"/><g id="Desktop05"><g><path d="M28,8v13c0,0.55-0.45,1-1,1H5c-0.55,0-1-0.45-1-1V8c0-1.65,1.35-3,3-3h18C26.65,5,28,6.35,28,8z" fill="#2197F3"/></g><g><g><path d="M11.5,15c-0.2559,0-0.5117-0.0977-0.707-0.293c-0.3906-0.3906-0.3906-1.0234,0-1.4141l3-3     c0.3906-0.3906,1.0234-0.3906,1.4141,0s0.3906,1.0234,0,1.4141l-3,3C12.0117,14.9023,11.7559,15,11.5,15z" fill="#FFFFFF"/></g><g><path d="M15.5,16c-0.2559,0-0.5117-0.0977-0.707-0.293c-0.3906-0.3906-0.3906-1.0234,0-1.4141l5-5     c0.3906-0.3906,1.0234-0.3906,1.4141,0s0.3906,1.0234,0,1.4141l-5,5C16.0117,15.9023,15.7559,16,15.5,16z" fill="#FFFFFF"/></g></g><g><path d="M31,23.5c0,1.93-1.57,3.5-3.5,3.5h-23C2.57,27,1,25.43,1,23.5S2.57,20,4.5,20h23    C29.43,20,31,21.57,31,23.5z" fill="#3F51B5"/></g></g><g id="Desktop04"/><g id="Desktop03"/><g id="Desktop02"/><g id="Desktop01"/></svg>